name ./resultDataOpenSim/trcMotMarkerGrf/sub10/grf-05-01.mot
datacolumns 19
datarows 17
range 0.99200000 1.05600000
endheader

                time	     ground_force_vx	     ground_force_vy	     ground_force_vz	     ground_force_px	     ground_force_py	     ground_force_pz	   l_ground_force_vx	   l_ground_force_vy	   l_ground_force_vz	   l_ground_force_px	   l_ground_force_py	   l_ground_force_pz	     ground_torque_x	     ground_torque_y	     ground_torque_z	   l_ground_torque_x	   l_ground_torque_y	   l_ground_torque_z	
          0.99200000	          0.00000000	          0.00000000	          0.00000000	          0.00000000	          0.00000000	          0.00000000	          9.98498853	        248.04485875	          4.28777458	          0.07053736	         -0.10000000	         -0.08392760	          0.00000000	          0.00000000	          0.00000000	          0.00000000	         -0.66572035	          0.00000000	
          0.99600000	          0.00000000	          0.00000000	          0.00000000	          0.00000000	          0.00000000	          0.00000000	         10.86376153	        247.29185968	          4.67032620	          0.07052720	         -0.10000000	         -0.08404872	          0.00000000	          0.00000000	          0.00000000	          0.00000000	         -0.67862534	          0.00000000	
          1.00000000	          0.00000000	          0.00000000	          0.00000000	          0.00000000	          0.00000000	          0.00000000	         12.12780288	        248.18213029	          5.23230454	          0.07057242	         -0.10000000	         -0.08386198	          0.00000000	          0.00000000	          0.00000000	          0.00000000	         -0.69922355	          0.00000000	
          1.00400000	          0.00000000	          0.00000000	          0.00000000	          0.00000000	          0.00000000	          0.00000000	         13.87057372	        250.83663999	          6.02917033	          0.07062753	         -0.10000000	         -0.08340098	          0.00000000	          0.00000000	          0.00000000	          0.00000000	         -0.72749965	          0.00000000	
          1.00800000	          0.00000000	          0.00000000	          0.00000000	          0.00000000	          0.00000000	          0.00000000	         16.13253588	        255.37373126	          7.08311862	          0.07061582	         -0.10000000	         -0.08281118	          0.00000000	          0.00000000	          0.00000000	          0.00000000	         -0.76426360	          0.00000000	
          1.01200000	          0.00000000	          0.00000000	          0.00000000	          0.00000000	          0.00000000	          0.00000000	         18.88990694	        261.84582115	          8.35780493	          0.07046342	         -0.10000000	         -0.08226131	          0.00000000	          0.00000000	          0.00000000	          0.00000000	         -0.81082525	          0.00000000	
          1.01600000	          0.00000000	          0.00000000	          0.00000000	          0.00000000	          0.00000000	          0.00000000	         22.04198547	        270.21147909	          9.76475926	          0.07018387	         -0.10000000	         -0.08187168	          0.00000000	          0.00000000	          0.00000000	          0.00000000	         -0.86845740	          0.00000000	
          1.02000000	          0.00000000	          0.00000000	          0.00000000	          0.00000000	          0.00000000	          0.00000000	         25.40715705	        280.37834933	         11.20419149	          0.06989925	         -0.10000000	         -0.08163955	          0.00000000	          0.00000000	          0.00000000	          0.00000000	         -0.93791410	          0.00000000	
          1.02400000	          0.00000000	          0.00000000	          0.00000000	          0.00000000	          0.00000000	          0.00000000	         28.73668777	        292.28136978	         12.59323491	          0.06974483	         -0.10000000	         -0.08151078	          0.00000000	          0.00000000	          0.00000000	          0.00000000	         -1.01924829	          0.00000000	
          1.02800000	          0.00000000	          0.00000000	          0.00000000	          0.00000000	          0.00000000	          0.00000000	         31.76047857	        305.95239252	         13.86190763	          0.06978216	         -0.10000000	         -0.08142643	          0.00000000	          0.00000000	          0.00000000	          0.00000000	         -1.11200196	          0.00000000	
          1.03200000	          0.00000000	          0.00000000	          0.00000000	          0.00000000	          0.00000000	          0.00000000	         34.26029915	        321.51112933	         14.95684759	          0.06999457	         -0.10000000	         -0.08134080	          0.00000000	          0.00000000	          0.00000000	          0.00000000	         -1.21563512	          0.00000000	
          1.03600000	          0.00000000	          0.00000000	          0.00000000	          0.00000000	          0.00000000	          0.00000000	         36.13295214	        339.04237302	         15.86218728	          0.07032165	         -0.10000000	         -0.08121836	          0.00000000	          0.00000000	          0.00000000	          0.00000000	         -1.32997534	          0.00000000	
          1.04000000	          0.00000000	          0.00000000	          0.00000000	          0.00000000	          0.00000000	          0.00000000	         37.41069914	        358.44644781	         16.59946679	          0.07067562	         -0.10000000	         -0.08103215	          0.00000000	          0.00000000	          0.00000000	          0.00000000	         -1.45550862	          0.00000000	
          1.04400000	          0.00000000	          0.00000000	          0.00000000	          0.00000000	          0.00000000	          0.00000000	         38.24138242	        379.38920560	         17.20625011	          0.07098501	         -0.10000000	         -0.08077439	          0.00000000	          0.00000000	          0.00000000	          0.00000000	         -1.59341999	          0.00000000	
          1.04800000	          0.00000000	          0.00000000	          0.00000000	          0.00000000	          0.00000000	          0.00000000	         38.84481291	        401.40418116	         17.72665306	          0.07123330	         -0.10000000	         -0.08046107	          0.00000000	          0.00000000	          0.00000000	          0.00000000	         -1.74539433	          0.00000000	
          1.05200000	          0.00000000	          0.00000000	          0.00000000	          0.00000000	          0.00000000	          0.00000000	         39.46165759	        424.07400743	         18.20903493	          0.07144142	         -0.10000000	         -0.08011544	          0.00000000	          0.00000000	          0.00000000	          0.00000000	         -1.91324987	          0.00000000	
          1.05600000	          0.00000000	          0.00000000	          0.00000000	          0.00000000	          0.00000000	          0.00000000	         40.31554429	        447.13640457	         18.68664180	          0.07162270	         -0.10000000	         -0.07974986	          0.00000000	          0.00000000	          0.00000000	          0.00000000	         -2.09848074	          0.00000000	
